<svg version="1.1" xmlns="http://www.w3.org/2000/svg" xmlns:xlink="http://www.w3.org/1999/xlink" width="800" height="800"><defs/><g transform="scale(2,2)"><g id="background-8df666ce"><rect fill="white" stroke="none" x="0" y="0" width="400" height="400" class="dcg-svg-background"/></g><g id="background-images-8df666ce"/><g id="graphpaper-8df666ce"><g id="grid-8df666ce"><g><path fill="none" stroke="rgb(0,0,0)" class="dcg-svg-minor-gridline" paint-order="fill stroke markers" d=" M 20.5 0 L 20.5 400" stroke-opacity="0.2" stroke-miterlimit="10" stroke-dasharray=""/><path fill="none" stroke="rgb(0,0,0)" class="dcg-svg-minor-gridline" paint-order="fill stroke markers" d=" M 40.5 0 L 40.5 400" stroke-opacity="0.2" stroke-miterlimit="10" stroke-dasharray=""/><path fill="none" stroke="rgb(0,0,0)" class="dcg-svg-minor-gridline" paint-order="fill stroke markers" d=" M 60.5 0 L 60.5 400" stroke-opacity="0.2" stroke-miterlimit="10" stroke-dasharray=""/><path fill="none" stroke="rgb(0,0,0)" class="dcg-svg-minor-gridline" paint-order="fill stroke markers" d=" M 80.5 0 L 80.5 400" stroke-opacity="0.2" stroke-miterlimit="10" stroke-dasharray=""/><path fill="none" stroke="rgb(0,0,0)" class="dcg-svg-minor-gridline" paint-order="fill stroke markers" d=" M 100.5 0 L 100.5 400" stroke-opacity="0.2" stroke-miterlimit="10" stroke-dasharray=""/><path fill="none" stroke="rgb(0,0,0)" class="dcg-svg-minor-gridline" paint-order="fill stroke markers" d=" M 120.5 0 L 120.5 400" stroke-opacity="0.2" stroke-miterlimit="10" stroke-dasharray=""/><path fill="none" stroke="rgb(0,0,0)" class="dcg-svg-minor-gridline" paint-order="fill stroke markers" d=" M 140.5 0 L 140.5 400" stroke-opacity="0.2" stroke-miterlimit="10" stroke-dasharray=""/><path fill="none" stroke="rgb(0,0,0)" class="dcg-svg-minor-gridline" paint-order="fill stroke markers" d=" M 160.5 0 L 160.5 400" stroke-opacity="0.2" stroke-miterlimit="10" stroke-dasharray=""/><path fill="none" stroke="rgb(0,0,0)" class="dcg-svg-minor-gridline" paint-order="fill stroke markers" d=" M 180.5 0 L 180.5 400" stroke-opacity="0.2" stroke-miterlimit="10" stroke-dasharray=""/><path fill="none" stroke="rgb(0,0,0)" class="dcg-svg-minor-gridline" paint-order="fill stroke markers" d=" M 220.5 0 L 220.5 400" stroke-opacity="0.2" stroke-miterlimit="10" stroke-dasharray=""/><path fill="none" stroke="rgb(0,0,0)" class="dcg-svg-minor-gridline" paint-order="fill stroke markers" d=" M 240.5 0 L 240.5 400" stroke-opacity="0.2" stroke-miterlimit="10" stroke-dasharray=""/><path fill="none" stroke="rgb(0,0,0)" class="dcg-svg-minor-gridline" paint-order="fill stroke markers" d=" M 260.5 0 L 260.5 400" stroke-opacity="0.2" stroke-miterlimit="10" stroke-dasharray=""/><path fill="none" stroke="rgb(0,0,0)" class="dcg-svg-minor-gridline" paint-order="fill stroke markers" d=" M 280.5 0 L 280.5 400" stroke-opacity="0.2" stroke-miterlimit="10" stroke-dasharray=""/><path fill="none" stroke="rgb(0,0,0)" class="dcg-svg-minor-gridline" paint-order="fill stroke markers" d=" M 300.5 0 L 300.5 400" stroke-opacity="0.2" stroke-miterlimit="10" stroke-dasharray=""/><path fill="none" stroke="rgb(0,0,0)" class="dcg-svg-minor-gridline" paint-order="fill stroke markers" d=" M 320.5 0 L 320.5 400" stroke-opacity="0.2" stroke-miterlimit="10" stroke-dasharray=""/><path fill="none" stroke="rgb(0,0,0)" class="dcg-svg-minor-gridline" paint-order="fill stroke markers" d=" M 340.5 0 L 340.5 400" stroke-opacity="0.2" stroke-miterlimit="10" stroke-dasharray=""/><path fill="none" stroke="rgb(0,0,0)" class="dcg-svg-minor-gridline" paint-order="fill stroke markers" d=" M 360.5 0 L 360.5 400" stroke-opacity="0.2" stroke-miterlimit="10" stroke-dasharray=""/><path fill="none" stroke="rgb(0,0,0)" class="dcg-svg-minor-gridline" paint-order="fill stroke markers" d=" M 380.5 0 L 380.5 400" stroke-opacity="0.2" stroke-miterlimit="10" stroke-dasharray=""/><path fill="none" stroke="rgb(0,0,0)" class="dcg-svg-minor-gridline" paint-order="fill stroke markers" d=" M 0 380.5 L 400 380.5" stroke-opacity="0.2" stroke-miterlimit="10" stroke-dasharray=""/><path fill="none" stroke="rgb(0,0,0)" class="dcg-svg-minor-gridline" paint-order="fill stroke markers" d=" M 0 360.5 L 400 360.5" stroke-opacity="0.2" stroke-miterlimit="10" stroke-dasharray=""/><path fill="none" stroke="rgb(0,0,0)" class="dcg-svg-minor-gridline" paint-order="fill stroke markers" d=" M 0 340.5 L 400 340.5" stroke-opacity="0.2" stroke-miterlimit="10" stroke-dasharray=""/><path fill="none" stroke="rgb(0,0,0)" class="dcg-svg-minor-gridline" paint-order="fill stroke markers" d=" M 0 320.5 L 400 320.5" stroke-opacity="0.2" stroke-miterlimit="10" stroke-dasharray=""/><path fill="none" stroke="rgb(0,0,0)" class="dcg-svg-minor-gridline" paint-order="fill stroke markers" d=" M 0 300.5 L 400 300.5" stroke-opacity="0.2" stroke-miterlimit="10" stroke-dasharray=""/><path fill="none" stroke="rgb(0,0,0)" class="dcg-svg-minor-gridline" paint-order="fill stroke markers" d=" M 0 280.5 L 400 280.5" stroke-opacity="0.2" stroke-miterlimit="10" stroke-dasharray=""/><path fill="none" stroke="rgb(0,0,0)" class="dcg-svg-minor-gridline" paint-order="fill stroke markers" d=" M 0 260.5 L 400 260.5" stroke-opacity="0.2" stroke-miterlimit="10" stroke-dasharray=""/><path fill="none" stroke="rgb(0,0,0)" class="dcg-svg-minor-gridline" paint-order="fill stroke markers" d=" M 0 240.5 L 400 240.5" stroke-opacity="0.2" stroke-miterlimit="10" stroke-dasharray=""/><path fill="none" stroke="rgb(0,0,0)" class="dcg-svg-minor-gridline" paint-order="fill stroke markers" d=" M 0 220.5 L 400 220.5" stroke-opacity="0.2" stroke-miterlimit="10" stroke-dasharray=""/><path fill="none" stroke="rgb(0,0,0)" class="dcg-svg-minor-gridline" paint-order="fill stroke markers" d=" M 0 180.5 L 400 180.5" stroke-opacity="0.2" stroke-miterlimit="10" stroke-dasharray=""/><path fill="none" stroke="rgb(0,0,0)" class="dcg-svg-minor-gridline" paint-order="fill stroke markers" d=" M 0 160.5 L 400 160.5" stroke-opacity="0.2" stroke-miterlimit="10" stroke-dasharray=""/><path fill="none" stroke="rgb(0,0,0)" class="dcg-svg-minor-gridline" paint-order="fill stroke markers" d=" M 0 140.5 L 400 140.5" stroke-opacity="0.2" stroke-miterlimit="10" stroke-dasharray=""/><path fill="none" stroke="rgb(0,0,0)" class="dcg-svg-minor-gridline" paint-order="fill stroke markers" d=" M 0 120.5 L 400 120.5" stroke-opacity="0.2" stroke-miterlimit="10" stroke-dasharray=""/><path fill="none" stroke="rgb(0,0,0)" class="dcg-svg-minor-gridline" paint-order="fill stroke markers" d=" M 0 100.5 L 400 100.5" stroke-opacity="0.2" stroke-miterlimit="10" stroke-dasharray=""/><path fill="none" stroke="rgb(0,0,0)" class="dcg-svg-minor-gridline" paint-order="fill stroke markers" d=" M 0 80.5 L 400 80.5" stroke-opacity="0.2" stroke-miterlimit="10" stroke-dasharray=""/><path fill="none" stroke="rgb(0,0,0)" class="dcg-svg-minor-gridline" paint-order="fill stroke markers" d=" M 0 60.5 L 400 60.5" stroke-opacity="0.2" stroke-miterlimit="10" stroke-dasharray=""/><path fill="none" stroke="rgb(0,0,0)" class="dcg-svg-minor-gridline" paint-order="fill stroke markers" d=" M 0 40.5 L 400 40.5" stroke-opacity="0.2" stroke-miterlimit="10" stroke-dasharray=""/><path fill="none" stroke="rgb(0,0,0)" class="dcg-svg-minor-gridline" paint-order="fill stroke markers" d=" M 0 20.5 L 400 20.5" stroke-opacity="0.2" stroke-miterlimit="10" stroke-dasharray=""/><path fill="none" stroke="rgb(0,0,0)" class="dcg-svg-major-gridline" paint-order="fill stroke markers" d=" M 100.5 0 L 100.5 400" stroke-opacity="0.2500000000000001" stroke-miterlimit="10" stroke-dasharray=""/><path fill="none" stroke="rgb(0,0,0)" class="dcg-svg-major-gridline" paint-order="fill stroke markers" d=" M 300.5 0 L 300.5 400" stroke-opacity="0.2500000000000001" stroke-miterlimit="10" stroke-dasharray=""/><path fill="none" stroke="rgb(0,0,0)" class="dcg-svg-major-gridline" paint-order="fill stroke markers" d=" M 0 300 L 400 300" stroke-opacity="0.2500000000000001" stroke-miterlimit="10" stroke-dasharray=""/><path fill="none" stroke="rgb(0,0,0)" class="dcg-svg-major-gridline" paint-order="fill stroke markers" d=" M 0 100 L 400 100" stroke-opacity="0.2500000000000001" stroke-miterlimit="10" stroke-dasharray=""/><path fill="none" stroke="rgb(0,0,0)" class="dcg-svg-major-gridline" paint-order="fill stroke markers" d=" M 0 0 L 400 0" stroke-opacity="0.2500000000000001" stroke-miterlimit="10" stroke-dasharray=""/></g></g><g id="axis-8df666ce"><g id="yaxis-8df666ce"><title>Y axis</title><path fill="none" stroke="rgb(0,0,0)" class="dcg-svg-axis-line" paint-order="fill stroke markers" d=" M 200 0 L 200 400" stroke-opacity="0.9" stroke-miterlimit="10" stroke-width="1.5" stroke-dasharray=""/></g><g id="xaxis-8df666ce"><title>X axis</title><path fill="none" stroke="rgb(0,0,0)" class="dcg-svg-axis-line" paint-order="fill stroke markers" d=" M 0 200 L 400 200" stroke-opacity="0.9" stroke-miterlimit="10" stroke-width="1.5" stroke-dasharray=""/></g><g><g class="dcg-svg-axis-value"><text fill="none" stroke="#ffffff" font-family="Arial" font-size="14px" font-style="normal" font-weight="normal" text-decoration="normal" x="191.10693359375" y="215.80800000000002" text-anchor="middle" stroke-miterlimit="2" stroke-width="3" stroke-dasharray="">0</text><text fill="#000000" stroke="none" font-family="Arial" font-size="14px" font-style="normal" font-weight="normal" text-decoration="normal" x="191.10693359375" y="215.80800000000002" text-anchor="middle">0</text></g><g class="dcg-svg-axis-value dcg-svg-offcenter-axis-value"><text fill="none" stroke="#ffffff" font-family="Arial" font-size="14px" font-style="normal" font-weight="normal" text-decoration="normal" x="13.1171875" y="215.80800000000002" text-anchor="middle" stroke-miterlimit="2" stroke-width="3" stroke-dasharray="">-10</text><text fill="#000000" stroke="none" font-family="Arial" font-size="14px" font-style="normal" font-weight="normal" text-decoration="normal" x="13.1171875" y="215.80800000000002" text-anchor="middle">-10</text></g><g class="dcg-svg-axis-value"><text fill="none" stroke="#ffffff" font-family="Arial" font-size="14px" font-style="normal" font-weight="normal" text-decoration="normal" x="97.6689453125" y="215.80800000000002" text-anchor="middle" stroke-miterlimit="2" stroke-width="3" stroke-dasharray="">-5</text><text fill="#000000" stroke="none" font-family="Arial" font-size="14px" font-style="normal" font-weight="normal" text-decoration="normal" x="97.6689453125" y="215.80800000000002" text-anchor="middle">-5</text></g><g class="dcg-svg-axis-value"><text fill="none" stroke="#ffffff" font-family="Arial" font-size="14px" font-style="normal" font-weight="normal" text-decoration="normal" x="300" y="215.80800000000002" text-anchor="middle" stroke-miterlimit="2" stroke-width="3" stroke-dasharray="">5</text><text fill="#000000" stroke="none" font-family="Arial" font-size="14px" font-style="normal" font-weight="normal" text-decoration="normal" x="300" y="215.80800000000002" text-anchor="middle">5</text></g><g class="dcg-svg-axis-value dcg-svg-offcenter-axis-value"><text fill="none" stroke="#ffffff" font-family="Arial" font-size="14px" font-style="normal" font-weight="normal" text-decoration="normal" x="389.2138671875" y="215.80800000000002" text-anchor="middle" stroke-miterlimit="2" stroke-width="3" stroke-dasharray="">10</text><text fill="#000000" stroke="none" font-family="Arial" font-size="14px" font-style="normal" font-weight="normal" text-decoration="normal" x="389.2138671875" y="215.80800000000002" text-anchor="middle">10</text></g><g class="dcg-svg-axis-value"><text fill="none" stroke="#ffffff" font-family="Arial" font-size="14px" font-style="normal" font-weight="normal" text-decoration="normal" x="188.77587890625" y="303.808" text-anchor="middle" stroke-miterlimit="2" stroke-width="3" stroke-dasharray="">-5</text><text fill="#000000" stroke="none" font-family="Arial" font-size="14px" font-style="normal" font-weight="normal" text-decoration="normal" x="188.77587890625" y="303.808" text-anchor="middle">-5</text></g><g class="dcg-svg-axis-value"><text fill="none" stroke="#ffffff" font-family="Arial" font-size="14px" font-style="normal" font-weight="normal" text-decoration="normal" x="191.10693359375" y="103.80800000000004" text-anchor="middle" stroke-miterlimit="2" stroke-width="3" stroke-dasharray="">5</text><text fill="#000000" stroke="none" font-family="Arial" font-size="14px" font-style="normal" font-weight="normal" text-decoration="normal" x="191.10693359375" y="103.80800000000004" text-anchor="middle">5</text></g><g class="dcg-svg-axis-value dcg-svg-offcenter-axis-value"><text fill="none" stroke="#ffffff" font-family="Arial" font-size="14px" font-style="normal" font-weight="normal" text-decoration="normal" x="187.2138671875" y="13.808" text-anchor="middle" stroke-miterlimit="2" stroke-width="3" stroke-dasharray="">10</text><text fill="#000000" stroke="none" font-family="Arial" font-size="14px" font-style="normal" font-weight="normal" text-decoration="normal" x="187.2138671875" y="13.808" text-anchor="middle">10</text></g></g></g></g><g id="expressions-8df666ce"><g id="sketch-8df666ce"><title>Expression 1</title><path fill="#6042a6" stroke="none" paint-order="stroke fill markers" d="" fill-opacity="0.4"/><g><path fill="none" stroke="#6042a6" class="dcg-svg-curve" paint-order="fill stroke markers" d=" M 0 212.96721654918176 L 0 212.96721654918176 L 2.24609375 209.98175022851547 L 4.98046875 206.76565959091158 L 8.69140625 202.8317325100469 L 18.9453125 192.19567903427964 L 21.6796875 188.84530136691131 L 23.828125 185.83671877594654 L 25.68359375 182.84564286701902 L 27.34375 179.73556769794783 L 28.80859375 176.52271415638774 L 30.17578125 172.98195674609704 L 31.34765625 169.38244670788325 L 32.421875 165.46480812750164 L 33.49609375 160.74534254793008 L 34.47265625 155.49987111845758 L 35.3515625 149.6988543189875 L 36.23046875 142.45514007670937 L 37.01171875 134.283730483427 L 37.6953125 125.1954411039265 L 38.37890625 113.44166810776824 L 38.96484375 100.19754577281822 L 39.55078125 82.41638383062264 L 40.0390625 62.13577446773559 L 40.52734375 33.64588355079235 L 40.91796875 0.9074824004107995 L 40.96952883248326 -5.5" stroke-linecap="round" stroke-linejoin="round" stroke-miterlimit="10" stroke-width="2.5" stroke-opacity="0.9" stroke-dasharray=""/></g><g><path fill="none" stroke="#6042a6" class="dcg-svg-curve" paint-order="fill stroke markers" d=" M 44.88512907682403 405.5 L 44.88512907682403 405.5 L 45.21484375 373.56621280960877 L 45.703125 342.8135186149776 L 46.2890625 317.6153088007918 L 46.875 299.8255346151459 L 47.55859375 284.68821293121175 L 48.33984375 271.99247038990524 L 49.12109375 262.42829447968643 L 50 254.12027733545386 L 50.87890625 247.5792017616809 L 51.85546875 241.74849303976356 L 52.9296875 236.56923982334695 L 54.1015625 231.96724054537498 L 55.2734375 228.15424276030268 L 56.54296875 224.67514711444923 L 58.0078125 221.2811976145265 L 59.5703125 218.19950624734292 L 61.328125 215.2169817130601 L 63.37890625 212.20355035855252 L 65.72265625 209.18893168412728 L 68.65234375 205.8420886198354 L 72.75390625 201.5856977453268 L 80.76171875 193.34398295970482 L 83.69140625 189.89708777185672 L 86.03515625 186.7548721226206 L 87.98828125 183.74060750615945 L 89.6484375 180.77637538502884 L 91.2109375 177.5191039264983 L 92.578125 174.16126156333334 L 93.84765625 170.46463640040375 L 95.01953125 166.37886870772516 L 96.09375 161.85625881350578 L 97.0703125 156.8581676813667 L 97.94921875 151.36545933778734 L 98.828125 144.55740802627358 L 99.609375 136.94420594022768 L 100.390625 127.19116041567588 L 101.07421875 116.05845426464356 L 101.66015625 103.61766495958841 L 102.24609375 87.08510015046039 L 102.83203125 63.99735394654044 L 103.3203125 36.331522535535214 L 103.80859375 -5.152558420583375 L 103.811209003787 -5.5" stroke-linecap="round" stroke-linejoin="round" stroke-miterlimit="10" stroke-width="2.5" stroke-opacity="0.9" stroke-dasharray=""/></g><g><path fill="none" stroke="#6042a6" class="dcg-svg-curve" paint-order="fill stroke markers" d=" M 107.72060180488816 405.5 L 107.72060180488816 405.5 L 108.0078125 376.58452531189755 L 108.49609375 344.8635486334506 L 109.08203125 319.01494979010283 L 109.66796875 300.8430129712922 L 110.3515625 285.4304134049149 L 111.1328125 272.53901578256574 L 111.9140625 262.8485888594907 L 112.79296875 254.44560451398445 L 113.671875 247.83935358652056 L 114.6484375 241.95765878028033 L 115.72265625 236.73872778876637 L 116.796875 232.45797218695162 L 117.96875 228.56531643547302 L 119.23828125 225.02245463363857 L 120.703125 221.57446759796824 L 122.265625 218.4506741966072 L 124.0234375 215.43369347934728 L 125.9765625 212.52727034769404 L 128.3203125 209.4741127075734 L 131.15234375 206.2040445963228 L 135.05859375 202.1174114547229 L 143.9453125 192.95094377363864 L 146.77734375 189.57609082785805 L 149.0234375 186.5286607843077 L 150.9765625 183.47912489032083 L 152.63671875 180.47314217879872 L 154.1015625 177.38563378389216 L 155.46875 174.00379507859557 L 156.73828125 170.27687670281824 L 157.91015625 166.15289322271738 L 158.984375 161.5821752011459 L 159.9609375 156.5238069557293 L 160.83984375 150.95622607693483 L 161.71875 144.04279772948215 L 162.5 136.29522160997544 L 163.28125 126.34443429573895 L 163.96484375 114.95072250196301 L 164.55078125 102.17352520066532 L 165.13671875 85.12040506891475 L 165.625 65.81035204358614 L 166.11328125 38.93304091983896 L 166.6015625 -1.103061540798194 L 166.63616244814372 -5.5" stroke-linecap="round" stroke-linejoin="round" stroke-miterlimit="10" stroke-width="2.5" stroke-opacity="0.9" stroke-dasharray=""/></g><g><path fill="none" stroke="#6042a6" class="dcg-svg-curve" paint-order="fill stroke markers" d=" M 170.54638401759092 405.5 L 170.54638401759092 405.5 L 170.8984375 372.061512773994 L 171.38671875 341.7868662743178 L 171.97265625 316.9117540613689 L 172.65625 296.86641001994695 L 173.33984375 282.51708689698887 L 174.12109375 270.3858474637219 L 174.90234375 261.18822873137344 L 175.78125 253.15732083874553 L 176.66015625 246.80720900854996 L 177.63671875 241.1263952939516 L 178.7109375 236.06413686939857 L 179.8828125 231.55328410052167 L 181.15234375 227.52214066719125 L 182.51953125 223.90095257196754 L 183.984375 220.62498699275415 L 185.64453125 217.46272459701623 L 187.5 214.42968881981813 L 189.55078125 211.51668294117525 L 191.9921875 208.4650749128369 L 195.1171875 204.98219541586616 L 199.90234375 200.0976570261096 L 206.0546875 193.7533036445297 L 209.08203125 190.23752466677735 L 211.42578125 187.14422563102005 L 213.4765625 184.0299185650971 L 215.234375 180.92543573545987 L 216.796875 177.69436629234502 L 218.1640625 174.36779741404592 L 219.43359375 170.7105952109504 L 220.60546875 166.6744769360379 L 221.6796875 162.21424717752737 L 222.65625 157.29414263230285 L 223.53515625 151.8980636071036 L 224.4140625 145.22560626056713 L 225.1953125 137.78470160502985 L 225.9765625 128.2841167663778 L 226.66015625 117.48291310301119 L 227.34375 103.1335899800531 L 227.9296875 86.42761494576371 L 228.515625 63.051431070925105 L 229.00390625 34.96870291919657 L 229.39453125 2.7911406686200166 L 229.46267169316673 -5.5" stroke-linecap="round" stroke-linejoin="round" stroke-miterlimit="10" stroke-width="2.5" stroke-opacity="0.9" stroke-dasharray=""/></g><g><path fill="none" stroke="#6042a6" class="dcg-svg-curve" paint-order="fill stroke markers" d=" M 233.3826505890682 405.5 L 233.3826505890682 405.5 L 233.69140625 375.02796016560967 L 234.1796875 343.8078882332051 L 234.765625 318.2950737735102 L 235.3515625 300.32013853926543 L 236.03515625 285.04927749803704 L 236.81640625 272.2585227725001 L 237.59765625 262.6329875018911 L 238.4765625 254.27878516451668 L 239.35546875 247.7059960039907 L 240.33203125 241.85046715066673 L 241.40625 236.65189131808464 L 242.48046875 232.38582101707064 L 243.65234375 228.50494496250928 L 244.921875 224.97150017126955 L 246.38671875 221.53148398778433 L 247.94921875 218.41389460353682 L 249.70703125 215.40198717761015 L 251.66015625 212.49959743845878 L 254.00390625 209.44977383801915 L 256.8359375 206.18225001211988 L 260.7421875 202.0973030468209 L 269.62890625 192.92857782339945 L 272.4609375 189.55078773636782 L 274.70703125 186.49973093479042 L 276.66015625 183.44563949377093 L 278.3203125 180.43425903949992 L 279.78515625 177.3402683752228 L 281.15234375 173.95023798789623 L 282.421875 170.21296966956845 L 283.59375 166.07591662213412 L 284.66796875 161.48872731883304 L 285.64453125 156.40969478962657 L 286.5234375 150.81640875315642 L 287.40234375 143.86673964244437 L 288.18359375 136.07285499731108 L 288.96484375 126.0537493414376 L 289.6484375 114.56958659508524 L 290.234375 101.67540270741415 L 290.8203125 84.44047585571809 L 291.30859375 64.88903386252673 L 291.796875 37.61274097640751 L 292.28515625 -3.1542169911423343 L 292.3032030412415 -5.5" stroke-linecap="round" stroke-linejoin="round" stroke-miterlimit="10" stroke-width="2.5" stroke-opacity="0.9" stroke-dasharray=""/></g><g><path fill="none" stroke="#6042a6" class="dcg-svg-curve" paint-order="fill stroke markers" d=" M 296.20723307244845 405.5 L 296.20723307244845 405.5 L 296.58203125 370.58233897911146 L 297.16796875 336.0026460534596 L 297.75390625 312.91489984953967 L 298.4375 294.0710883626292 L 299.12109375 280.44876212149586 L 299.90234375 268.8443398340902 L 300.68359375 259.9919704234901 L 301.5625 252.22398625023197 L 302.5390625 245.44748464748864 L 303.515625 240.02554698540794 L 304.58984375 235.16658198130844 L 305.76171875 230.81495090069282 L 307.03125 226.90848511848156 L 308.3984375 223.38503101572653 L 309.86328125 220.1857834669319 L 311.5234375 217.08697867105036 L 313.37890625 214.10497675880947 L 315.52734375 211.10377378976136 L 318.06640625 207.9851237420679 L 321.2890625 204.44577164482016 L 326.7578125 198.9048009017405 L 331.8359375 193.62405428278703 L 334.86328125 190.09155380404104 L 337.20703125 186.97748347987985 L 339.16015625 183.99732455584308 L 340.91796875 180.88742234865782 L 342.48046875 177.64969186301542 L 343.84765625 174.31517684899106 L 345.1171875 170.6479639636132 L 346.2890625 166.5992471895084 L 347.36328125 162.12320151906647 L 348.33984375 157.183342671739 L 349.21875 151.76281281835784 L 350.09765625 145.05608825225585 L 350.87890625 137.57170552031363 L 351.66015625 128.00752961009482 L 352.34375 117.1230085670067 L 353.02734375 102.64482972467749 L 353.61328125 85.7626623193409 L 354.1015625 66.67899132635989 L 354.58984375 40.17459970495503 L 355.078125 0.818269481829816 L 355.1289166250876 -5.5" stroke-linecap="round" stroke-linejoin="round" stroke-miterlimit="10" stroke-width="2.5" stroke-opacity="0.9" stroke-dasharray=""/></g><g><path fill="none" stroke="#6042a6" class="dcg-svg-curve" paint-order="fill stroke markers" d=" M 359.0442933160887 405.5 L 359.0442933160887 405.5 L 359.375 373.4982524473118 L 359.86328125 342.7672165841689 L 360.44921875 317.5836161693775 L 361.03515625 299.80245422718184 L 361.71875 284.6713513365677 L 362.5 271.98003795948523 L 363.28125 262.41872476324045 L 364.16015625 254.11286377870414 L 365.0390625 247.573269545124 L 366.015625 241.74372067591563 L 367.08984375 236.56537075533072 L 368.26171875 231.96407386602795 L 369.43359375 228.15158659856053 L 370.703125 224.67290027071428 L 372.16796875 221.27929812584966 L 373.73046875 218.1978777155071 L 375.48828125 215.21557514062073 L 377.5390625 212.2023278072413 L 379.8828125 209.18785275596477 L 382.8125 205.84112172611987 L 386.9140625 201.58480125724753 L 394.921875 193.34299338212492 L 397.8515625 189.89596952515052 L 400 187.0327834508183" stroke-linecap="round" stroke-linejoin="round" stroke-miterlimit="10" stroke-width="2.5" stroke-opacity="0.9" stroke-dasharray=""/></g></g></g><g id="labels-8df666ce"/></g></svg>